# xmcd CD database file
#
# Track frame offsets:
#	150
#	14955
#	40367
#	64536
#	86185
#	111868
#	132469
#	150845
#	172173
#	194916
#	208892
#	232043
#
# Disc length: 3313 seconds
#
# Revision: 0
# Processed by: cddbd v1.5.2PL0 Copyright (c) Steve Scherf et al.
# Submitted via: CDex 1.70beta2
#
DISCID=b80cef0c
DTITLE=The Wreckery - Past Imperfect (Disc2)
DYEAR=2008
DGENRE=Blues
TTITLE0=Ruling Energy  
TTITLE1=I Think This Town Is Nervous
TTITLE2=The Understudy
TTITLE3=Crooked Tree
TTITLE4=Laying Down Law 
TTITLE5=Yeh My People 
TTITLE6=Two Wings 
TTITLE7=Everlasting Sleep 
TTITLE8=Grinder Mill
TTITLE9=Damned Is Hard
TTITLE10=Overload 
TTITLE11=Bending The Bars
EXTD=YEAR: 2008
EXTT0=
EXTT1=
EXTT2=
EXTT3=
EXTT4=
EXTT5=
EXTT6=
EXTT7=
EXTT8=
EXTT9=
EXTT10=
EXTT11=
PLAYORDER=
